<?xml version="1.0" standalone="no"?>
<!DOCTYPE svg PUBLIC "-//W3C//DTD SVG 20010904//EN"
 "http://www.w3.org/TR/2001/REC-SVG-20010904/DTD/svg10.dtd">
<svg version="1.0" xmlns="http://www.w3.org/2000/svg"
 width="1000.000000pt" height="1000.000000pt" viewBox="0 0 1000.000000 1000.000000"
 preserveAspectRatio="xMidYMid meet">
<metadata>
Created by potrace 1.11, written by Peter Selinger 2001-2013
</metadata>
<g transform="translate(0.000000,1000.000000) scale(0.100000,-0.100000)"
fill="#000000" stroke="none">
<path d="M4652 8489 c-12 -5 -22 -6 -22 -2 0 3 -7 0 -15 -7 -8 -7 -15 -9 -15
-5 0 4 -12 0 -26 -10 -18 -12 -24 -13 -19 -4 3 8 0 6 -8 -3 -8 -10 -19 -18
-26 -18 -6 0 -11 -4 -11 -10 0 -5 -7 -10 -15 -10 -8 0 -15 -4 -15 -8 0 -5 -11
-15 -25 -22 -14 -7 -25 -17 -25 -22 0 -4 -8 -16 -17 -26 -29 -30 -48 -57 -51
-73 -2 -7 -8 -17 -14 -20 -6 -4 -7 -12 -4 -18 4 -6 2 -11 -3 -11 -6 0 -11 -9
-11 -19 0 -11 -4 -22 -9 -26 -6 -3 -8 -14 -6 -25 2 -11 -1 -22 -6 -25 -5 -4
-7 -10 -4 -15 3 -5 1 -11 -5 -15 -6 -4 -8 -10 -5 -15 3 -5 1 -11 -4 -15 -6 -3
-8 -12 -4 -20 3 -8 1 -15 -4 -15 -5 0 -10 -6 -11 -12 -4 -34 -12 -67 -26 -106
-8 -23 -15 -44 -16 -47 0 -3 0 -6 -1 -7 0 -2 -2 -10 -4 -18 -2 -8 -9 -33 -15
-55 -6 -22 -12 -44 -13 -50 -1 -5 -6 -15 -9 -21 -4 -6 -10 -24 -13 -40 -10
-47 -10 -48 -19 -62 -4 -7 -5 -16 -2 -19 3 -3 1 -13 -3 -22 -23 -42 52 -155
103 -156 12 -1 28 -5 36 -10 16 -10 29 -13 73 -17 15 -1 27 -5 27 -9 0 -4 14
-6 31 -5 16 1 32 -1 35 -6 3 -5 9 -6 14 -3 5 3 20 1 34 -5 18 -7 26 -6 26 1 0
8 4 8 13 2 12 -10 65 -16 152 -17 28 0 53 -5 57 -11 5 -7 8 -6 8 1 0 7 11 9
25 6 l25 -4 0 581 0 582 -68 -2 c-37 -1 -78 -6 -90 -10z"/>
<path d="M5170 4775 l0 -3725 24 0 c13 0 26 7 30 15 3 8 12 15 21 15 8 0 15 4
15 9 0 5 12 14 28 20 15 6 41 20 57 31 17 11 42 25 58 31 15 6 27 15 27 19 0
4 12 13 28 19 35 15 86 42 92 50 3 4 16 12 30 19 14 6 52 27 85 47 33 19 67
38 75 42 8 4 33 19 56 35 22 15 52 32 65 38 13 6 38 19 54 30 17 11 44 27 60
35 17 9 44 24 60 35 17 11 41 25 55 30 13 6 27 14 30 18 3 4 16 13 30 20 14 7
39 21 55 32 17 11 41 25 55 30 13 6 27 14 30 18 3 4 16 13 30 20 14 7 48 25
75 41 l50 29 3 1041 c2 1123 -1 1063 53 1024 33 -24 61 -42 79 -50 8 -3 52
-28 96 -54 45 -27 84 -49 87 -49 3 0 26 -13 50 -30 24 -16 55 -34 68 -40 13
-6 38 -19 54 -30 17 -11 42 -25 58 -31 15 -6 27 -15 27 -19 0 -4 12 -13 28
-19 15 -6 41 -20 57 -31 17 -11 41 -25 55 -30 13 -6 27 -14 30 -18 5 -7 20
-15 123 -69 26 -14 47 -29 47 -35 0 -5 10 -8 23 -6 l22 3 3 706 c2 702 2 706
-19 733 -11 14 -27 26 -34 26 -7 0 -20 6 -27 13 -7 6 -36 23 -63 37 -28 14
-52 28 -55 32 -3 4 -17 12 -30 18 -14 6 -43 21 -65 35 -22 13 -49 29 -60 35
-11 5 -33 19 -50 30 -16 11 -43 26 -60 34 -16 8 -57 31 -90 50 -33 20 -69 40
-80 46 -11 6 -38 22 -60 35 -22 14 -52 30 -67 36 -16 6 -28 15 -28 20 0 5 -7
9 -14 9 -8 0 -35 13 -59 30 -24 16 -56 34 -70 39 l-27 11 0 400 c0 455 -6 428
86 367 28 -19 57 -37 65 -40 8 -4 41 -23 74 -42 33 -20 74 -42 90 -51 17 -8
44 -23 60 -34 17 -11 41 -25 55 -32 14 -7 27 -16 30 -20 3 -4 17 -12 30 -18
14 -5 39 -19 55 -30 17 -11 44 -26 60 -35 17 -8 44 -24 60 -34 17 -11 53 -32
80 -46 28 -15 68 -37 90 -50 22 -14 49 -29 60 -35 11 -6 34 -19 50 -30 17 -11
44 -27 60 -35 17 -9 44 -24 60 -35 17 -11 41 -24 54 -30 13 -6 44 -24 68 -40
24 -17 51 -30 59 -30 7 0 14 -4 14 -9 0 -4 21 -19 48 -33 94 -50 117 -63 122
-70 3 -4 17 -12 30 -18 14 -6 43 -21 65 -35 22 -13 49 -29 60 -35 11 -5 34
-19 50 -30 17 -11 40 -24 52 -29 12 -6 41 -22 65 -37 94 -60 145 -83 157 -71
8 8 11 229 11 819 l0 807 -22 22 c-13 11 -32 25 -43 30 -11 5 -38 20 -60 34
-22 13 -50 28 -62 34 -11 5 -24 15 -28 20 -3 6 -12 11 -20 11 -8 0 -34 13 -58
30 -24 16 -55 34 -68 40 -13 6 -37 19 -54 30 -16 11 -41 25 -55 30 -13 6 -27
14 -30 18 -3 4 -16 13 -30 20 -14 7 -52 28 -85 47 -33 19 -71 40 -85 47 -14 7
-27 16 -30 20 -3 4 -17 12 -30 17 -38 17 -133 71 -151 87 -8 8 -23 14 -31 14
-9 0 -18 7 -22 15 -3 8 -14 15 -25 15 -11 0 -23 5 -26 10 -4 6 -21 17 -38 25
-18 8 -45 24 -62 35 -16 11 -39 24 -50 30 -11 6 -47 26 -80 45 -33 20 -73 42
-90 51 -16 8 -43 24 -60 34 -16 11 -43 27 -60 35 -16 9 -43 24 -60 35 -16 11
-43 26 -60 34 -16 9 -57 31 -90 51 -33 19 -69 40 -80 45 -11 6 -38 21 -60 35
-22 13 -49 29 -60 35 -11 5 -47 26 -80 45 -33 20 -73 42 -90 51 -16 8 -43 24
-60 34 -16 11 -43 27 -60 35 -16 9 -43 24 -60 35 -16 10 -52 31 -80 45 -27 15
-68 37 -90 50 -22 14 -49 29 -60 35 -11 6 -33 19 -50 30 -16 11 -44 26 -61 34
-17 8 -35 19 -38 25 -4 6 -16 11 -27 11 -11 0 -22 7 -25 15 -4 8 -14 15 -24
15 -11 0 -22 5 -25 11 -4 5 -17 15 -28 20 -12 6 -40 21 -62 34 -22 14 -51 29
-65 35 -13 6 -27 14 -30 18 -3 4 -16 13 -30 20 -14 6 -52 27 -85 47 -33 19
-71 41 -85 47 -14 7 -30 17 -37 23 -7 5 -19 16 -27 23 -8 6 -24 12 -36 12
l-20 0 0 -3725z"/>
<path d="M3835 6306 c-49 -17 -102 -86 -96 -123 1 -7 -4 -13 -10 -13 -7 0 -10
-3 -6 -6 3 -3 -1 -24 -9 -46 -7 -22 -12 -44 -9 -48 3 -5 1 -10 -5 -12 -5 -1
-11 -15 -12 -30 -1 -16 -7 -28 -12 -28 -5 0 -7 -3 -4 -6 5 -5 -9 -61 -29 -114
-4 -8 -7 -19 -7 -25 -1 -10 -22 -76 -33 -105 -7 -19 -10 -29 -11 -57 -1 -12
-8 -28 -14 -35 -7 -7 -13 -22 -12 -33 0 -11 -2 -24 -5 -30 -3 -5 -6 -13 -7
-17 -1 -5 -2 -9 -3 -10 -2 -2 -5 -14 -7 -28 -3 -14 -9 -27 -14 -28 -6 -2 -8
-7 -5 -12 2 -4 -4 -34 -14 -66 -18 -55 -60 -196 -64 -219 -2 -5 -5 -14 -9 -20
-5 -9 -20 -69 -19 -80 0 -2 -6 -20 -15 -40 -8 -19 -11 -35 -8 -35 4 0 1 -7 -6
-15 -7 -8 -9 -15 -5 -15 4 0 2 -6 -4 -14 -9 -10 -9 -16 -1 -21 6 -4 10 -14 8
-23 -5 -33 44 -115 106 -178 35 -35 68 -64 75 -64 6 0 11 -4 11 -10 0 -5 9
-10 21 -10 11 0 18 -3 15 -8 -2 -4 16 -16 40 -27 24 -11 44 -23 44 -28 0 -4 4
-5 10 -2 5 3 26 -3 47 -14 21 -10 57 -24 81 -31 23 -7 42 -16 42 -20 0 -4 11
-6 25 -5 14 2 25 -1 25 -6 0 -5 3 -8 8 -7 11 2 86 -14 97 -21 6 -4 20 -6 33
-5 12 0 22 -3 22 -8 0 -5 3 -7 8 -4 6 4 36 -1 127 -19 11 -2 20 -4 20 -5 0 -1
14 -3 30 -5 17 -1 53 -5 80 -9 65 -7 187 -17 250 -21 28 -1 52 -4 55 -5 3 -1
10 -1 15 0 26 6 62 5 79 -3 13 -7 16 -6 11 3 -6 9 -2 9 14 1 17 -9 22 -9 26 1
3 7 4 402 3 877 l-3 864 -110 4 c-153 5 -169 6 -177 18 -5 6 -8 5 -8 -4 0 -9
-4 -10 -12 -3 -7 5 -32 9 -56 8 -24 -1 -46 2 -48 6 -3 5 -9 6 -14 3 -5 -3 -28
-1 -52 5 -24 5 -56 12 -73 14 -16 2 -30 5 -30 6 0 2 -13 4 -30 5 -16 2 -30 4
-30 5 0 1 -9 4 -20 6 -21 3 -57 11 -65 14 -3 1 -9 3 -15 5 -5 1 -12 3 -15 4
-5 3 -23 7 -58 15 -13 3 -32 8 -42 11 -35 11 -85 11 -115 1z"/>
<path d="M2623 4142 c-13 -2 -23 -9 -23 -15 0 -7 -4 -6 -10 3 -6 10 -10 11
-10 3 0 -7 -8 -13 -18 -13 -10 0 -28 -7 -40 -16 -12 -8 -22 -12 -22 -9 0 10
-72 -46 -107 -83 -18 -19 -33 -39 -33 -44 0 -5 -4 -6 -10 -3 -5 3 -12 -6 -16
-20 -3 -14 -10 -25 -15 -25 -5 0 -9 -7 -9 -15 0 -8 -4 -23 -9 -33 -14 -26 -41
-89 -41 -95 0 -3 -5 -18 -12 -34 -6 -15 -12 -30 -13 -33 -1 -3 -7 -18 -13 -33
-7 -16 -12 -32 -12 -36 0 -4 -9 -25 -19 -47 -11 -21 -17 -42 -14 -46 2 -5 -1
-8 -7 -8 -6 0 -8 -4 -5 -10 3 -5 1 -10 -5 -10 -6 0 -9 -3 -6 -8 2 -4 -3 -23
-12 -42 -9 -19 -16 -39 -17 -45 -3 -23 -17 -55 -24 -55 -4 0 -8 -6 -8 -14 0
-13 -9 -38 -73 -201 -30 -76 -36 -95 -40 -110 -1 -5 -6 -15 -12 -22 -5 -7 -7
-17 -3 -23 3 -5 1 -10 -4 -10 -6 0 -11 -5 -11 -10 0 -6 -7 -27 -16 -48 -10
-20 -19 -46 -21 -57 -2 -10 -8 -22 -15 -26 -6 -4 -8 -11 -4 -17 3 -6 -1 -18
-10 -26 -8 -9 -13 -16 -10 -16 5 0 -11 -46 -39 -115 -5 -11 -9 -22 -10 -25 -1
-3 -7 -18 -14 -35 -7 -16 -14 -34 -15 -40 -1 -5 -4 -14 -7 -20 -10 -17 -33
-90 -31 -97 1 -5 -2 -8 -8 -8 -5 0 -10 -9 -10 -20 0 -11 -5 -20 -10 -20 -6 0
-9 -3 -9 -7 1 -5 0 -10 -1 -13 -1 -3 -3 -12 -5 -20 -2 -8 -18 -51 -35 -95 -17
-44 -32 -88 -33 -97 0 -10 -4 -18 -7 -18 -3 0 -6 -12 -5 -27 0 -16 -4 -31 -10
-35 -6 -5 -5 -8 3 -8 9 0 10 -5 3 -19 -6 -10 -8 -20 -6 -23 2 -2 6 -27 8 -54
2 -28 6 -55 9 -60 3 -5 11 -30 18 -56 7 -27 17 -48 21 -48 5 0 8 -3 7 -7 -8
-24 136 -198 154 -187 4 3 8 1 8 -4 0 -9 70 -47 83 -44 4 1 7 -2 7 -8 0 -5 11
-10 25 -10 14 0 25 -5 25 -11 0 -6 9 -9 20 -6 11 3 20 1 20 -4 0 -4 612 -8
1390 -9 l1390 0 0 869 0 869 -34 0 c-19 0 -38 2 -43 5 -4 2 -17 1 -28 -3 -11
-4 -30 -4 -42 1 -14 5 -23 4 -27 -4 -3 -8 -5 -8 -5 -1 -1 7 -14 10 -32 8 -22
-3 -28 0 -23 9 6 9 5 9 -8 0 -8 -7 -17 -11 -20 -8 -2 2 -29 5 -59 6 -30 1 -62
6 -71 11 -13 6 -18 5 -18 -4 0 -8 -3 -9 -8 -3 -4 6 -22 11 -39 10 -18 0 -33 2
-33 5 0 3 -19 6 -43 7 -23 1 -55 5 -72 9 -16 3 -40 6 -52 6 -13 0 -23 3 -23 7
0 4 -17 8 -37 9 -20 2 -44 8 -52 15 -12 10 -13 9 -6 -3 7 -12 6 -13 -7 -3 -8
7 -18 10 -21 6 -4 -3 -7 -1 -7 5 0 6 -6 9 -14 6 -8 -3 -23 -1 -34 5 -11 6 -34
12 -51 13 -17 1 -31 6 -31 11 0 4 -4 5 -10 2 -5 -3 -10 -1 -10 5 0 7 -6 10
-12 7 -7 -2 -28 2 -46 9 -18 7 -36 14 -40 15 -14 3 -37 11 -57 19 -43 18 -60
23 -67 22 -5 -1 -8 3 -8 9 0 6 -6 9 -14 6 -8 -3 -16 -2 -18 3 -2 5 -10 10 -18
12 -8 2 -17 5 -20 8 -3 3 -25 16 -50 29 -60 33 -160 103 -160 113 0 4 -7 8
-17 8 -9 0 -14 3 -10 6 3 3 -5 16 -18 28 -34 31 -71 117 -70 157 1 19 8 45 15
59 7 14 14 47 15 75 2 65 -23 108 -80 135 -41 20 -57 21 -287 19 -134 -2 -253
-5 -265 -7z"/>
</g>
</svg>
